<?xml version="1.0" encoding="UTF-8" standalone="no"?> <svg xmlns="http://www.w3.org/2000/svg" viewBox="0 0 64 64"><g id="Layer_83" data-name="Layer 83"><path d="M47.9,40.41a6.09,6.09,0,0,0,2.7-4.87,6,6,0,0,0-2.45-4.67c-2.54,4.27-7.54,7.42-13.51,8.24A9.38,9.38,0,0,0,42,42.26a10.19,10.19,0,0,0,1.16-.06.73.73,0,0,1,.51.11L49.7,46.1l-2-4.72a.74.74,0,0,1,0-.77A.9.9,0,0,1,47.9,40.41Z"/><path d="M48.46,24.5c0-7.36-7.62-13.34-17-13.34s-17,6-17,13.34a12.27,12.27,0,0,0,5.38,9.74.76.76,0,0,1,.25.9l-4.71,11,13.26-8.28a.74.74,0,0,1,.48-.1C39.52,38.83,48.46,32.45,48.46,24.5Zm-24.22-.9a1.14,1.14,0,0,1-.09.26.85.85,0,0,1-.13.25.88.88,0,0,1-.18.21,1.36,1.36,0,0,1-1,.42,1.42,1.42,0,0,1-1-.42l-.17-.21a2,2,0,0,1-.13-.25,1.12,1.12,0,0,1-.08-.26,1.31,1.31,0,0,1,0-.27,1.41,1.41,0,0,1,.41-1,1.46,1.46,0,0,1,2,0,1.39,1.39,0,0,1,.43,1C24.27,23.41,24.25,23.51,24.24,23.6Zm5.33.73a1.42,1.42,0,0,1-1,.42,1.4,1.4,0,0,1-1-.42,1.41,1.41,0,0,1,0-2A1.38,1.38,0,0,1,28.84,22a.83.83,0,0,1,.27.07,1.83,1.83,0,0,1,.24.13,1.24,1.24,0,0,1,.22.18,1.41,1.41,0,0,1,0,2Zm5.77,0a1.39,1.39,0,0,1-2,0,1.41,1.41,0,0,1,0-2A1.38,1.38,0,0,1,34.62,22a.77.77,0,0,1,.26.07l.25.13a1.18,1.18,0,0,1,.21.18,1.39,1.39,0,0,1,0,2Zm5.78,0a1.41,1.41,0,0,1-2-2A1.38,1.38,0,0,1,40.39,22a.83.83,0,0,1,.27.07,1.83,1.83,0,0,1,.24.13,1.24,1.24,0,0,1,.22.18,1.41,1.41,0,0,1,0,2Z"/><path d="M32,3.25A28.75,28.75,0,1,0,60.75,32,28.79,28.79,0,0,0,32,3.25ZM52,47.7a.75.75,0,0,1-.2.87.74.74,0,0,1-.49.18.77.77,0,0,1-.39-.11l-7.89-4.92c-.34,0-.7,0-1.1,0a10.6,10.6,0,0,1-9-4.47,22.71,22.71,0,0,1-3.68-.06L14.2,48.64a.83.83,0,0,1-.4.11.74.74,0,0,1-.49-.18.75.75,0,0,1-.2-.87l5.42-12.62A13.6,13.6,0,0,1,13,24.5C13,16.31,21.3,9.66,31.48,9.66S50,16.31,50,24.5a12.22,12.22,0,0,1-1.11,5,7.52,7.52,0,0,1,3.25,6,7.54,7.54,0,0,1-2.85,5.72Z"/></g></svg>